<?xml version="1.0" encoding="UTF-8"?>
<svg width="193px" height="48px" viewBox="0 0 193 48" version="1.1" xmlns="http://www.w3.org/2000/svg" xmlns:xlink="http://www.w3.org/1999/xlink">
    <!-- Generator: Sketch 56 (81588) - https://sketch.com -->
    <title>btn_google_signin_dark_disabled_web</title>
    <desc>Created with Sketch.</desc>
    <g id="btn_google_signin_dark_disabled_web" stroke="none" stroke-width="1" fill="none" fill-rule="evenodd">
        <g id="button" transform="translate(4.000000, 4.000000)" fill="#000000" fill-opacity="0.08">
            <rect id="button-bg" x="0" y="0" width="185" height="40" rx="2"></rect>
        </g>
        <path d="M60.2138672,26.4365234 C60.2138672,25.9990212 60.0600601,25.661785 59.7524414,25.4248047 C59.4448227,25.1878243 58.889978,24.9485689 58.0878906,24.7070312 C57.2858033,24.4654936 56.6477888,24.1966161 56.1738281,23.9003906 C55.2669225,23.3307263 54.8134766,22.5878952 54.8134766,21.671875 C54.8134766,20.8697877 55.140459,20.208987 55.7944336,19.6894531 C56.4484082,19.1699193 57.2971953,18.9101562 58.3408203,18.9101562 C59.0335321,18.9101562 59.651039,19.0377591 60.1933594,19.2929688 C60.7356798,19.5481784 61.1617823,19.9116187 61.4716797,20.3833008 C61.7815771,20.8549828 61.9365234,21.3779268 61.9365234,21.9521484 L60.2138672,21.9521484 C60.2138672,21.4326146 60.0509456,21.0258804 59.7250977,20.7319336 C59.3992497,20.4379868 58.9332713,20.2910156 58.3271484,20.2910156 C57.7620414,20.2910156 57.3234065,20.4117826 57.0112305,20.6533203 C56.6990544,20.894858 56.5429688,21.2320942 56.5429688,21.6650391 C56.5429688,22.0296242 56.7115869,22.3338204 57.0488281,22.5776367 C57.3860694,22.821453 57.9420534,23.0584298 58.7167969,23.2885742 C59.4915403,23.5187186 60.1136044,23.7807602 60.5830078,24.074707 C61.0524112,24.3686538 61.3964833,24.70589 61.6152344,25.0864258 C61.8339855,25.4669615 61.9433594,25.9124323 61.9433594,26.4228516 C61.9433594,27.2522828 61.6254915,27.9119442 60.9897461,28.4018555 C60.3540007,28.8917668 59.4915419,29.1367188 58.4023438,29.1367188 C57.6822881,29.1367188 57.0203481,29.0034193 56.4165039,28.7368164 C55.8126597,28.4702135 55.3432634,28.1022159 55.0083008,27.6328125 C54.6733382,27.1634091 54.5058594,26.6165396 54.5058594,25.9921875 L56.2353516,25.9921875 C56.2353516,26.5572945 56.4221987,26.9947901 56.7958984,27.3046875 C57.1695982,27.6145849 57.7050746,27.7695312 58.4023438,27.7695312 C59.0039093,27.7695312 59.4562159,27.6476249 59.7592773,27.4038086 C60.0623388,27.1599923 60.2138672,26.8375671 60.2138672,26.4365234 Z M65.2861328,29 L63.625,29 L63.625,21.6035156 L65.2861328,21.6035156 L65.2861328,29 Z M63.5224609,19.6826172 C63.5224609,19.4274076 63.6033521,19.2154956 63.7651367,19.046875 C63.9269214,18.8782544 64.1582016,18.7939453 64.4589844,18.7939453 C64.7597671,18.7939453 64.9921867,18.8782544 65.15625,19.046875 C65.3203133,19.2154956 65.4023438,19.4274076 65.4023438,19.6826172 C65.4023438,19.9332695 65.3203133,20.1417635 65.15625,20.3081055 C64.9921867,20.4744474 64.7597671,20.5576172 64.4589844,20.5576172 C64.1582016,20.5576172 63.9269214,20.4744474 63.7651367,20.3081055 C63.6033521,20.1417635 63.5224609,19.9332695 63.5224609,19.6826172 Z M67.0224609,25.2470703 C67.0224609,24.0986271 67.2924778,23.1814813 67.8325195,22.4956055 C68.3725613,21.8097296 69.0891882,21.4667969 69.9824219,21.4667969 C70.825525,21.4667969 71.4886044,21.7607392 71.9716797,22.3486328 L72.046875,21.6035156 L73.5439453,21.6035156 L73.5439453,28.7744141 C73.5439453,29.745122 73.2420278,30.5107394 72.6381836,31.0712891 C72.0343394,31.6318387 71.2197317,31.9121094 70.1943359,31.9121094 C69.6520155,31.9121094 69.1222357,31.7993175 68.6049805,31.5737305 C68.0877253,31.3481434 67.6946628,31.0530617 67.4257812,30.6884766 L68.2119141,29.6904297 C68.7223333,30.2965525 69.3512332,30.5996094 70.0986328,30.5996094 C70.6500679,30.5996094 71.0852849,30.4503596 71.4042969,30.1518555 C71.7233089,29.8533514 71.8828125,29.4147164 71.8828125,28.8359375 L71.8828125,28.3369141 C71.4042945,28.8701199 70.76628,29.1367188 69.96875,29.1367188 C69.1028603,29.1367188 68.3953478,28.7926467 67.8461914,28.1044922 C67.297035,27.4163377 67.0224609,26.4638733 67.0224609,25.2470703 Z M68.6767578,25.390625 C68.6767578,26.1334673 68.8282862,26.7179341 69.1313477,27.144043 C69.4344091,27.5701519 69.854815,27.7832031 70.3925781,27.7832031 C71.0625033,27.7832031 71.5592432,27.4960966 71.8828125,26.921875 L71.8828125,23.6679688 C71.5683578,23.1074191 71.0761752,22.8271484 70.40625,22.8271484 C69.8593723,22.8271484 69.4344091,23.0436176 69.1313477,23.4765625 C68.8282862,23.9095074 68.6767578,24.5475218 68.6767578,25.390625 Z M77.0097656,21.6035156 L77.0576172,22.4580078 C77.6044949,21.7971972 78.3222612,21.4667969 79.2109375,21.4667969 C80.7513098,21.4667969 81.5351561,22.348624 81.5625,24.1123047 L81.5625,29 L79.9013672,29 L79.9013672,24.2080078 C79.9013672,23.7386044 79.7999685,23.3911144 79.597168,23.1655273 C79.3943675,22.9399403 79.0628278,22.8271484 78.6025391,22.8271484 C77.9326138,22.8271484 77.4335954,23.1302053 77.1054688,23.7363281 L77.1054688,29 L75.4443359,29 L75.4443359,21.6035156 L77.0097656,21.6035156 Z M88.9453125,29 L87.2841797,29 L87.2841797,21.6035156 L88.9453125,21.6035156 L88.9453125,29 Z M87.1816406,19.6826172 C87.1816406,19.4274076 87.2625317,19.2154956 87.4243164,19.046875 C87.5861011,18.8782544 87.8173813,18.7939453 88.1181641,18.7939453 C88.4189468,18.7939453 88.6513664,18.8782544 88.8154297,19.046875 C88.979493,19.2154956 89.0615234,19.4274076 89.0615234,19.6826172 C89.0615234,19.9332695 88.979493,20.1417635 88.8154297,20.3081055 C88.6513664,20.4744474 88.4189468,20.5576172 88.1181641,20.5576172 C87.8173813,20.5576172 87.5861011,20.4744474 87.4243164,20.3081055 C87.2625317,20.1417635 87.1816406,19.9332695 87.1816406,19.6826172 Z M92.5136719,21.6035156 L92.5615234,22.4580078 C93.1084012,21.7971972 93.8261674,21.4667969 94.7148438,21.4667969 C96.255216,21.4667969 97.0390624,22.348624 97.0664062,24.1123047 L97.0664062,29 L95.4052734,29 L95.4052734,24.2080078 C95.4052734,23.7386044 95.3038747,23.3911144 95.1010742,23.1655273 C94.8982737,22.9399403 94.5667341,22.8271484 94.1064453,22.8271484 C93.4365201,22.8271484 92.9375016,23.1302053 92.609375,23.7363281 L92.609375,29 L90.9482422,29 L90.9482422,21.6035156 L92.5136719,21.6035156 Z M109.179688,26.7099609 L110.355469,21.6035156 L111.975586,21.6035156 L109.958984,29 L108.591797,29 L107.005859,23.9208984 L105.447266,29 L104.080078,29 L102.056641,21.6035156 L103.676758,21.6035156 L104.873047,26.6552734 L106.390625,21.6035156 L107.641602,21.6035156 L109.179688,26.7099609 Z M115.072266,29 L113.411133,29 L113.411133,21.6035156 L115.072266,21.6035156 L115.072266,29 Z M113.308594,19.6826172 C113.308594,19.4274076 113.389485,19.2154956 113.55127,19.046875 C113.713054,18.8782544 113.944334,18.7939453 114.245117,18.7939453 C114.5459,18.7939453 114.778319,18.8782544 114.942383,19.046875 C115.106446,19.2154956 115.188477,19.4274076 115.188477,19.6826172 C115.188477,19.9332695 115.106446,20.1417635 114.942383,20.3081055 C114.778319,20.4744474 114.5459,20.5576172 114.245117,20.5576172 C113.944334,20.5576172 113.713054,20.4744474 113.55127,20.3081055 C113.389485,20.1417635 113.308594,19.9332695 113.308594,19.6826172 Z M119.180664,19.8056641 L119.180664,21.6035156 L120.486328,21.6035156 L120.486328,22.8339844 L119.180664,22.8339844 L119.180664,26.9628906 C119.180664,27.2454441 119.23649,27.4493809 119.348145,27.574707 C119.459799,27.7000332 119.659178,27.7626953 119.946289,27.7626953 C120.137696,27.7626953 120.331379,27.7399091 120.527344,27.6943359 L120.527344,28.9794922 C120.149087,29.0843104 119.784507,29.1367188 119.433594,29.1367188 C118.157546,29.1367188 117.519531,28.4326242 117.519531,27.0244141 L117.519531,22.8339844 L116.302734,22.8339844 L116.302734,21.6035156 L117.519531,21.6035156 L117.519531,19.8056641 L119.180664,19.8056641 Z M123.610352,22.4101562 C124.152672,21.7812469 124.838538,21.4667969 125.667969,21.4667969 C127.2448,21.4667969 128.044596,22.366853 128.067383,24.1669922 L128.067383,29 L126.40625,29 L126.40625,24.2285156 C126.40625,23.7180964 126.295737,23.3569347 126.074707,23.1450195 C125.853677,22.9331044 125.528973,22.8271484 125.100586,22.8271484 C124.435218,22.8271484 123.938478,23.1233694 123.610352,23.7158203 L123.610352,29 L121.949219,29 L121.949219,18.5 L123.610352,18.5 L123.610352,22.4101562 Z M141.458984,27.7080078 C141.098957,28.1774112 140.599938,28.5328764 139.961914,28.7744141 C139.32389,29.0159517 138.599288,29.1367188 137.788086,29.1367188 C136.954097,29.1367188 136.215824,28.947593 135.573242,28.5693359 C134.930661,28.1910788 134.43506,27.6499059 134.086426,26.9458008 C133.737791,26.2416957 133.556641,25.4202521 133.542969,24.4814453 L133.542969,23.7021484 C133.542969,22.1982347 133.902991,21.0236045 134.623047,20.1782227 C135.343103,19.3328408 136.347975,18.9101562 137.637695,18.9101562 C138.745123,18.9101562 139.624671,19.183591 140.276367,19.7304688 C140.928063,20.2773465 141.319986,21.0657501 141.452148,22.0957031 L139.756836,22.0957031 C139.565429,20.8971294 138.870449,20.2978516 137.671875,20.2978516 C136.897132,20.2978516 136.308107,20.5769829 135.904785,21.1352539 C135.501463,21.6935249 135.292969,22.5126899 135.279297,23.5927734 L135.279297,24.3583984 C135.279297,25.4339246 135.50602,26.26904 135.959473,26.8637695 C136.412925,27.4584991 137.042969,27.7558594 137.849609,27.7558594 C138.733728,27.7558594 139.362628,27.5553405 139.736328,27.1542969 L139.736328,25.2060547 L137.685547,25.2060547 L137.685547,23.8935547 L141.458984,23.8935547 L141.458984,27.7080078 Z M143.106445,25.2333984 C143.106445,24.5087854 143.249999,23.8559599 143.537109,23.2749023 C143.82422,22.6938448 144.227536,22.2472346 144.74707,21.9350586 C145.266604,21.6228826 145.863603,21.4667969 146.538086,21.4667969 C147.536138,21.4667969 148.346188,21.7880827 148.968262,22.4306641 C149.590335,23.0732454 149.926432,23.9254504 149.976562,24.9873047 L149.983398,25.3769531 C149.983398,26.1061234 149.843263,26.7578096 149.562988,27.3320312 C149.282713,27.9062529 148.881676,28.3505844 148.359863,28.6650391 C147.838051,28.9794938 147.235355,29.1367188 146.551758,29.1367188 C145.508133,29.1367188 144.673017,28.7892287 144.046387,28.0942383 C143.419756,27.3992478 143.106445,26.4729876 143.106445,25.3154297 L143.106445,25.2333984 Z M144.767578,25.3769531 C144.767578,26.1380246 144.924803,26.7338846 145.239258,27.1645508 C145.553713,27.595217 145.991208,27.8105469 146.551758,27.8105469 C147.112307,27.8105469 147.548664,27.5917991 147.86084,27.1542969 C148.173016,26.7167947 148.329102,26.0765016 148.329102,25.2333984 C148.329102,24.4859989 148.168459,23.8935569 147.847168,23.4560547 C147.525877,23.0185525 147.089521,22.7998047 146.538086,22.7998047 C145.995766,22.7998047 145.565106,23.0151346 145.246094,23.4458008 C144.927082,23.876467 144.767578,24.520178 144.767578,25.3769531 Z M151.295898,25.2333984 C151.295898,24.5087854 151.439452,23.8559599 151.726562,23.2749023 C152.013673,22.6938448 152.41699,22.2472346 152.936523,21.9350586 C153.456057,21.6228826 154.053057,21.4667969 154.727539,21.4667969 C155.725591,21.4667969 156.535641,21.7880827 157.157715,22.4306641 C157.779788,23.0732454 158.115885,23.9254504 158.166016,24.9873047 L158.172852,25.3769531 C158.172852,26.1061234 158.032716,26.7578096 157.752441,27.3320312 C157.472167,27.9062529 157.071129,28.3505844 156.549316,28.6650391 C156.027504,28.9794938 155.424808,29.1367188 154.741211,29.1367188 C153.697586,29.1367188 152.862471,28.7892287 152.23584,28.0942383 C151.609209,27.3992478 151.295898,26.4729876 151.295898,25.3154297 L151.295898,25.2333984 Z M152.957031,25.3769531 C152.957031,26.1380246 153.114256,26.7338846 153.428711,27.1645508 C153.743166,27.595217 154.180661,27.8105469 154.741211,27.8105469 C155.301761,27.8105469 155.738117,27.5917991 156.050293,27.1542969 C156.362469,26.7167947 156.518555,26.0765016 156.518555,25.2333984 C156.518555,24.4859989 156.357912,23.8935569 156.036621,23.4560547 C155.71533,23.0185525 155.278974,22.7998047 154.727539,22.7998047 C154.185219,22.7998047 153.754559,23.0151346 153.435547,23.4458008 C153.116535,23.876467 152.957031,24.520178 152.957031,25.3769531 Z M159.505859,25.2470703 C159.505859,24.0986271 159.775876,23.1814813 160.315918,22.4956055 C160.85596,21.8097296 161.572587,21.4667969 162.46582,21.4667969 C163.308923,21.4667969 163.972003,21.7607392 164.455078,22.3486328 L164.530273,21.6035156 L166.027344,21.6035156 L166.027344,28.7744141 C166.027344,29.745122 165.725426,30.5107394 165.121582,31.0712891 C164.517738,31.6318387 163.70313,31.9121094 162.677734,31.9121094 C162.135414,31.9121094 161.605634,31.7993175 161.088379,31.5737305 C160.571124,31.3481434 160.178061,31.0530617 159.90918,30.6884766 L160.695312,29.6904297 C161.205732,30.2965525 161.834632,30.5996094 162.582031,30.5996094 C163.133466,30.5996094 163.568683,30.4503596 163.887695,30.1518555 C164.206707,29.8533514 164.366211,29.4147164 164.366211,28.8359375 L164.366211,28.3369141 C163.887693,28.8701199 163.249678,29.1367188 162.452148,29.1367188 C161.586259,29.1367188 160.878746,28.7926467 160.32959,28.1044922 C159.780433,27.4163377 159.505859,26.4638733 159.505859,25.2470703 Z M161.160156,25.390625 C161.160156,26.1334673 161.311685,26.7179341 161.614746,27.144043 C161.917808,27.5701519 162.338213,27.7832031 162.875977,27.7832031 C163.545902,27.7832031 164.042642,27.4960966 164.366211,26.921875 L164.366211,23.6679688 C164.051756,23.1074191 163.559574,22.8271484 162.889648,22.8271484 C162.342771,22.8271484 161.917808,23.0436176 161.614746,23.4765625 C161.311685,23.9095074 161.160156,24.5475218 161.160156,25.390625 Z M169.71875,29 L168.057617,29 L168.057617,18.5 L169.71875,18.5 L169.71875,29 Z M175.00293,29.1367188 C173.95019,29.1367188 173.096846,28.8051791 172.442871,28.1420898 C171.788896,27.4790006 171.461914,26.5960342 171.461914,25.4931641 L171.461914,25.2880859 C171.461914,24.549801 171.604328,23.8901396 171.88916,23.309082 C172.173992,22.7280244 172.573891,22.2757178 173.088867,21.9521484 C173.603844,21.6285791 174.178057,21.4667969 174.811523,21.4667969 C175.81869,21.4667969 176.59684,21.7880827 177.145996,22.4306641 C177.695152,23.0732454 177.969727,23.982416 177.969727,25.1582031 L177.969727,25.828125 L173.136719,25.828125 C173.186849,26.4388051 173.390786,26.9218732 173.748535,27.2773438 C174.106284,27.6328143 174.556312,27.8105469 175.098633,27.8105469 C175.859704,27.8105469 176.47949,27.5029328 176.958008,26.8876953 L177.853516,27.7421875 C177.55729,28.184247 177.161949,28.5271798 176.66748,28.7709961 C176.173012,29.0148124 175.618167,29.1367188 175.00293,29.1367188 Z M174.804688,22.7998047 C174.348956,22.7998047 173.980958,22.9593083 173.700684,23.2783203 C173.420409,23.5973323 173.241537,24.0416638 173.164062,24.6113281 L176.329102,24.6113281 L176.329102,24.4882812 C176.292643,23.9322889 176.144533,23.5118829 175.884766,23.2270508 C175.624999,22.9422186 175.264976,22.7998047 174.804688,22.7998047 Z" id="SigninwithGoogle" fill-opacity="0.4" fill="#000000" fill-rule="nonzero"></path>
        <path d="M24.001,25.71 L24.001,22.362 L32.425,22.362 C32.551,22.929 32.65,23.46 32.65,24.207 C32.65,29.346 29.203,33 24.01,33 C19.042,33 15.01,28.968 15.01,24 C15.01,19.032 19.042,15 24.01,15 C26.44,15 28.474,15.891 30.031,17.349 L27.475,19.833 C26.827,19.221 25.693,18.501 24.01,18.501 C21.031,18.501 18.601,20.976 18.601,24.009 C18.601,27.042 21.031,29.517 24.01,29.517 C27.457,29.517 28.726,27.132 28.96,25.719 L24.001,25.719 L24.001,25.71 Z" id="Shape-Copy" fill-opacity="0.4" fill="#000000"></path>
    </g>
</svg>